<?xml version="1.0" encoding="utf-8"?>
<!-- Generator: Adobe Illustrator 16.0.4, SVG Export Plug-In . SVG Version: 6.00 Build 0)  -->
<!DOCTYPE svg PUBLIC "-//W3C//DTD SVG 1.1//EN" "http://www.w3.org/Graphics/SVG/1.1/DTD/svg11.dtd">
<svg version="1.1" id="Layer_1" xmlns="http://www.w3.org/2000/svg" xmlns:xlink="http://www.w3.org/1999/xlink" x="0px" y="0px"
	 width="343.366px" height="93.648px" viewBox="0 0 343.366 93.648" enable-background="new 0 0 343.366 93.648"
	 xml:space="preserve">
<g>
	<path fill="#565656" d="M251.269,91.778c-0.646-0.567-1.553-1.46-2.723-2.445c-0.553-0.541-1.165-1.141-1.831-1.793
		c-0.646-0.665-1.392-1.27-2.087-2.071c-0.709-0.773-1.488-1.529-2.276-2.346c-0.744-0.883-1.545-1.756-2.353-2.678
		c-0.825-0.896-1.582-1.938-2.405-2.935c-0.843-0.976-1.591-2.097-2.397-3.183c-1.603-2.183-3.111-4.57-4.565-7.044
		c-0.18-0.311-0.38-0.608-0.546-0.93c-0.161-0.326-0.32-0.653-0.496-0.97c-0.344-0.636-0.691-1.276-1.04-1.92
		c-0.376-0.625-0.615-1.333-0.933-1.996c-0.306-0.67-0.641-1.326-0.965-1.99c-0.545-1.372-1.094-2.754-1.645-4.143l-0.731-2.115
		c-0.256-0.701-0.501-1.406-0.664-2.137c-0.396-1.438-0.917-2.847-1.168-4.318c-0.154-0.729-0.311-1.455-0.506-2.175
		c-0.181-0.719-0.242-1.353-0.378-2.032c-0.126-0.67-0.251-1.338-0.376-2.003c-0.096-0.85-0.191-1.696-0.286-2.537l-0.141-1.26
		l-0.07-0.627l-0.035-0.313l-0.009-0.078l-0.004-0.039c-0.003-0.084,0.009,0.592,0.003,0.29l-0.005-0.135
		c-0.016-0.722-0.088-1.443-0.137-2.161c-0.049-0.717-0.121-1.434-0.154-2.144c0.015-0.705,0.01-1.407-0.016-2.109
		c-0.019-0.705-0.037-1.402-0.056-2.091c0.04-0.683,0.087-1.359,0.096-2.039c0.017-0.682,0.034-1.355,0.05-2.018
		c0.024-0.665,0.142-1.301,0.174-1.952c0.113-1.289,0.158-2.574,0.37-3.77c0.164-1.229,0.321-2.408,0.47-3.529
		c0.201-1.118,0.424-2.181,0.585-3.217c0.136-1.065,0.409-1.937,0.577-2.833c0.185-0.883,0.371-1.705,0.513-2.479
		c0.433-1.533,0.729-2.801,0.948-3.639c0.209-0.849,0.294-1.319,0.294-1.319L223.521,0c0,0-1.009,1.433-2.738,3.973
		c-0.394,0.671-0.829,1.415-1.304,2.223c-0.465,0.814-1.023,1.673-1.464,2.658c-0.473,0.972-0.977,2.007-1.507,3.098
		c-0.482,1.113-0.9,2.32-1.385,3.561c-0.521,1.229-0.839,2.585-1.262,3.958c-0.192,0.691-0.43,1.385-0.594,2.108
		c-0.152,0.726-0.307,1.463-0.463,2.21c-0.156,0.748-0.314,1.506-0.475,2.273c-0.099,0.777-0.2,1.564-0.301,2.36
		c-0.101,0.796-0.203,1.601-0.306,2.413c-0.062,0.816-0.083,1.643-0.126,2.475c-0.038,0.833-0.077,1.673-0.116,2.519
		c0.001,0.91,0.048,1.696,0.071,2.558c0.029,0.846,0.058,1.696,0.087,2.551c0.097,0.87,0.194,1.743,0.292,2.62
		c0.113,0.874,0.167,1.767,0.33,2.635c0.167,0.867,0.334,1.736,0.502,2.607c0.277,1.757,0.826,3.457,1.285,5.179
		c0.222,0.865,0.529,1.701,0.85,2.532l0.932,2.499c0.673,1.64,1.459,3.227,2.191,4.818c0.871,1.521,1.66,3.074,2.578,4.524
		c0.473,0.716,0.944,1.428,1.411,2.135c0.459,0.712,0.927,1.411,1.456,2.057c1.996,2.67,4.117,5.109,6.306,7.237
		c2.161,2.16,4.401,3.992,6.521,5.599c1.089,0.765,2.134,1.498,3.126,2.196c1.047,0.612,2.041,1.193,2.974,1.739
		c0.917,0.573,1.841,0.99,2.679,1.402c0.839,0.409,1.611,0.785,2.307,1.125c1.428,0.6,2.568,1.028,3.336,1.34
		c0.77,0.305,1.181,0.468,1.181,0.468l0.35-0.938C252.244,92.711,251.907,92.365,251.269,91.778z"/>
	<rect y="27.006" fill="#565656" width="9.941" height="46.695"/>
	<polygon fill="#565656" points="51.452,56.199 40.11,27.006 26.179,27.006 26.179,73.701 36.12,73.701 36.12,40.027 49.282,73.701 
		53.622,73.701 66.783,40.027 66.783,73.701 76.794,73.701 76.794,27.006 62.793,27.006 	"/>
	<path fill="#565656" d="M114.871,27.006H93.029v46.695h9.941V57.039h11.901c10.081,0,15.682-6.861,15.682-14.982
		C130.553,33.867,125.022,27.006,114.871,27.006z M113.471,48.288H102.97V35.757h10.501c3.92,0,6.931,2.38,6.931,6.3
		C120.401,45.908,117.391,48.288,113.471,48.288z"/>
	<path fill="#565656" d="M175.772,54.729c0,6.511-3.71,10.991-10.921,10.991s-10.991-4.48-10.991-10.991V27.006h-10.081v28.003
		c0,11.551,6.86,19.532,21.072,19.532c14.211,0,21.072-7.98,21.072-19.532V27.006h-10.151V54.729z"/>
	<path fill="#565656" d="M269.864,39.748c0-2.801,2.38-4.621,6.581-4.621c4.76,0,9.801,1.61,13.581,5.11l5.531-7.421
		c-4.621-4.27-10.781-6.51-18.202-6.51c-10.991,0-17.712,6.44-17.712,14.211c0,17.572,26.883,11.901,26.883,20.022
		c0,2.73-2.59,5.181-8.121,5.181c-6.44,0-11.551-2.94-14.841-6.371l-5.46,7.771c4.41,4.411,10.851,7.421,19.882,7.421
		c12.531,0,18.692-6.44,18.692-14.981C296.677,42.127,269.864,47.098,269.864,39.748z"/>
	<polygon fill="#565656" points="343.366,35.756 343.366,27.005 310.323,27.005 310.323,73.701 343.366,73.701 343.366,64.95 
		320.264,64.95 320.264,54.309 342.876,54.309 342.876,45.558 320.264,45.558 320.264,35.756 	"/>
</g>
</svg>
