<?xml version="1.0" encoding="utf-8"?>
<!-- Generator: Adobe Illustrator 16.0.4, SVG Export Plug-In . SVG Version: 6.00 Build 0)  -->
<!DOCTYPE svg PUBLIC "-//W3C//DTD SVG 1.1//EN" "http://www.w3.org/Graphics/SVG/1.1/DTD/svg11.dtd">
<svg version="1.1" id="Layer_1" xmlns="http://www.w3.org/2000/svg" xmlns:xlink="http://www.w3.org/1999/xlink" x="0px" y="0px"
	 width="411.713px" height="83.242px" viewBox="0 0 411.713 83.242" enable-background="new 0 0 411.713 83.242"
	 xml:space="preserve">
<rect x="-27.282" y="-77.923" fill="none" width="440" height="106"/>
<text transform="matrix(1 0 0 1 339.876 -61.9629)" fill="#565656" font-family="'OpenSans'" font-size="21">GAMES</text>
<g>
	<g>
		<path fill="#FFFFFF" d="M35.508,16.84c0,5.532-1.729,9.762-5.186,12.691c-3.458,2.931-8.373,4.395-14.748,4.395h-4.676v18.281H0
			V0.809h16.418c6.234,0,10.974,1.342,14.221,4.025C33.885,7.518,35.508,11.52,35.508,16.84z M10.898,24.996h3.586
			c3.352,0,5.859-0.662,7.523-1.986c1.664-1.323,2.496-3.252,2.496-5.783c0-2.554-0.698-4.441-2.092-5.66
			c-1.395-1.218-3.581-1.828-6.557-1.828h-4.957V24.996z"/>
		<path fill="#FFFFFF" d="M93.663,26.438c0,8.508-2.109,15.047-6.328,19.617S77.069,52.91,69.194,52.91s-13.922-2.285-18.141-6.855
			s-6.328-11.132-6.328-19.688c0-8.555,2.115-15.087,6.346-19.6C55.302,2.256,61.366,0,69.265,0c7.898,0,13.939,2.273,18.123,6.82
			C91.571,11.368,93.663,17.907,93.663,26.438z M56.151,26.438c0,5.743,1.09,10.067,3.27,12.973c2.18,2.906,5.437,4.359,9.773,4.359
			c8.695,0,13.043-5.777,13.043-17.332c0-11.578-4.324-17.367-12.973-17.367c-4.336,0-7.606,1.459-9.809,4.377
			C57.253,16.365,56.151,20.695,56.151,26.438z"/>
		<path fill="#FFFFFF" d="M117.014,32.484v19.723h-10.898V0.809h14.977c6.984,0,12.152,1.271,15.504,3.814
			c3.352,2.543,5.027,6.404,5.027,11.584c0,3.023-0.832,5.713-2.496,8.068c-1.665,2.355-4.02,4.201-7.066,5.537
			c7.734,11.555,12.773,19.02,15.117,22.395h-12.094l-12.27-19.723H117.014z M117.014,23.625h3.516c3.445,0,5.988-0.574,7.629-1.723
			c1.64-1.147,2.461-2.953,2.461-5.414c0-2.438-0.838-4.171-2.514-5.203c-1.676-1.031-4.271-1.547-7.787-1.547h-3.305V23.625z"/>
		<path fill="#FFFFFF" d="M177.279,9.141c-4.102,0-7.277,1.542-9.527,4.623c-2.25,3.082-3.375,7.378-3.375,12.885
			c0,11.461,4.301,17.191,12.902,17.191c3.609,0,7.98-0.901,13.113-2.707v9.141c-4.219,1.758-8.93,2.637-14.133,2.637
			c-7.477,0-13.196-2.268-17.156-6.803c-3.961-4.535-5.941-11.044-5.941-19.529c0-5.344,0.972-10.025,2.918-14.045
			c1.945-4.02,4.74-7.102,8.385-9.246c3.644-2.145,7.916-3.217,12.814-3.217c4.992,0,10.007,1.208,15.047,3.621l-3.516,8.859
			c-1.922-0.914-3.855-1.71-5.801-2.391C181.063,9.48,179.154,9.141,177.279,9.141z"/>
		<path fill="#FFFFFF" d="M232.728,52.207h-29.602V0.809h29.602v8.93h-18.703v11.285h17.402v8.93h-17.402v13.254h18.703V52.207z"/>
		<path fill="#FFFFFF" d="M245.25,52.207V0.809h10.898v42.398h20.848v9H245.25z"/>
		<path fill="#FFFFFF" d="M319.19,52.207l-3.727-12.234h-18.738l-3.727,12.234h-11.742l18.141-51.609h13.324l18.211,51.609H319.19z
			 M312.862,30.832c-3.445-11.086-5.385-17.355-5.818-18.809c-0.434-1.453-0.744-2.602-0.932-3.445
			c-0.773,3-2.988,10.418-6.645,22.254H312.862z"/>
		<path fill="#FFFFFF" d="M339.202,52.207V0.809H350.1v51.398H339.202z"/>
		<path fill="#FFFFFF" d="M410.435,52.207h-13.852l-22.359-38.883h-0.316c0.445,6.868,0.668,11.766,0.668,14.695v24.188h-9.738
			V0.809h13.746l22.324,38.496h0.246c-0.352-6.68-0.527-11.402-0.527-14.168V0.809h9.809V52.207z"/>
	</g>
	<g>
		<path fill="#FFFFFF" d="M348.53,75.183h5.096v7.291c-0.793,0.252-1.6,0.443-2.42,0.574c-0.82,0.129-1.771,0.194-2.851,0.194
			c-2.27,0-4.037-0.675-5.301-2.025c-1.265-1.35-1.897-3.241-1.897-5.675c0-1.559,0.313-2.924,0.938-4.097
			c0.626-1.173,1.526-2.067,2.702-2.687s2.553-0.928,4.132-0.928c1.6,0,3.09,0.293,4.471,0.881l-0.677,1.539
			c-1.354-0.574-2.656-0.861-3.907-0.861c-1.825,0-3.25,0.543-4.276,1.63s-1.538,2.595-1.538,4.522c0,2.023,0.494,3.558,1.482,4.604
			c0.987,1.046,2.438,1.568,4.353,1.568c1.039,0,2.054-0.119,3.045-0.358v-4.614h-3.353V75.183z"/>
		<path fill="#FFFFFF" d="M367.174,83.037l-1.866-4.769h-6.009l-1.846,4.769h-1.764l5.927-15.053h1.466l5.896,15.053H367.174z
			 M364.764,76.7l-1.743-4.645c-0.226-0.588-0.458-1.31-0.697-2.164c-0.15,0.656-0.366,1.377-0.646,2.164l-1.764,4.645H364.764z"/>
		<path fill="#FFFFFF" d="M378.199,83.037l-5.086-13.289h-0.082c0.096,1.053,0.144,2.304,0.144,3.753v9.536h-1.61V68.046h2.625
			l4.748,12.366h0.082l4.789-12.366h2.604v14.991h-1.743v-9.659c0-1.107,0.048-2.311,0.144-3.609h-0.082l-5.127,13.269H378.199z"/>
		<path fill="#FFFFFF" d="M399.406,83.037h-8.357V68.046h8.357v1.549h-6.614v4.829h6.214v1.538h-6.214v5.517h6.614V83.037z"/>
		<path fill="#FFFFFF" d="M411.713,79.048c0,1.32-0.479,2.349-1.436,3.087s-2.256,1.107-3.896,1.107
			c-1.777,0-3.145-0.229-4.102-0.687v-1.682c0.615,0.26,1.285,0.465,2.01,0.615s1.442,0.225,2.153,0.225
			c1.162,0,2.037-0.22,2.625-0.661c0.588-0.44,0.882-1.054,0.882-1.841c0-0.52-0.104-0.944-0.312-1.276
			c-0.209-0.331-0.558-0.638-1.046-0.917c-0.489-0.281-1.232-0.599-2.23-0.954c-1.395-0.499-2.391-1.091-2.989-1.774
			s-0.897-1.575-0.897-2.676c0-1.155,0.434-2.074,1.302-2.758s2.017-1.025,3.445-1.025c1.49,0,2.861,0.273,4.112,0.82l-0.543,1.518
			c-1.237-0.52-2.44-0.779-3.609-0.779c-0.923,0-1.644,0.197-2.164,0.594s-0.779,0.947-0.779,1.651c0,0.52,0.096,0.945,0.287,1.276
			c0.191,0.332,0.514,0.636,0.969,0.913c0.454,0.276,1.15,0.583,2.086,0.917c1.572,0.561,2.654,1.162,3.246,1.805
			C411.417,77.188,411.713,78.022,411.713,79.048z"/>
	</g>
</g>
</svg>
